<svg width="25" height="24" viewBox="0 0 25 24" fill="none" xmlns="http://www.w3.org/2000/svg">
<path fill-rule="evenodd" clip-rule="evenodd" d="M22.5 12C22.5 17.5228 18.0228 22 12.5 22C6.97715 22 2.5 17.5228 2.5 12C2.5 6.47715 6.97715 2 12.5 2C18.0228 2 22.5 6.47715 22.5 12ZM20.5 12C20.5 16.4183 16.9183 20 12.5 20C8.08172 20 4.5 16.4183 4.5 12C4.5 7.58172 8.08172 4 12.5 4C16.9183 4 20.5 7.58172 20.5 12Z" fill="#7F8A94"/>
<path d="M16 11.134C16.6667 11.5189 16.6667 12.4811 16 12.866L11.5 15.4641C10.8333 15.849 10 15.3679 10 14.5981L10 9.40192C10 8.63212 10.8333 8.151 11.5 8.5359L16 11.134Z" fill="#7F8A94"/>
</svg>
